<mxfile host="app.diagrams.net" modified="2024-07-16T14:39:34.170Z" agent="Mozilla/5.0 (Windows NT 10.0; Win64; x64) AppleWebKit/537.36 (KHTML, like Gecko) Chrome/126.0.0.0 Safari/537.36" etag="XReQVrpDLupyv2nMXP7a" version="24.6.5" type="github">
  <diagram id="C5RBs43oDa-KdzZeNtuy" name="Page-1">
    <mxGraphModel dx="1949" dy="718" grid="1" gridSize="10" guides="1" tooltips="1" connect="1" arrows="1" fold="1" page="1" pageScale="1" pageWidth="827" pageHeight="1169" math="0" shadow="0">
      <root>
        <mxCell id="WIyWlLk6GJQsqaUBKTNV-0" />
        <mxCell id="WIyWlLk6GJQsqaUBKTNV-1" parent="WIyWlLk6GJQsqaUBKTNV-0" />
        <mxCell id="siVvn_Tyn5SH2jTSL9R0-0" value="Заказ" style="rounded=0;whiteSpace=wrap;html=1;align=left;" vertex="1" parent="WIyWlLk6GJQsqaUBKTNV-1">
          <mxGeometry x="-60" y="30" width="410" height="230" as="geometry" />
        </mxCell>
        <mxCell id="siVvn_Tyn5SH2jTSL9R0-2" value="Продукция - здесь полная информация о составе и свойствах заполнений. Параметры могут быть у каждого стекла свои + общие" style="rounded=0;whiteSpace=wrap;html=1;align=left;" vertex="1" parent="WIyWlLk6GJQsqaUBKTNV-1">
          <mxGeometry x="-20" y="50" width="340" height="160" as="geometry" />
        </mxCell>
        <mxCell id="siVvn_Tyn5SH2jTSL9R0-3" value="Технологический вклад в спецификацию&lt;br&gt;- какие операции&lt;br&gt;- для каких этапов производства&lt;br&gt;- в каком объёме" style="rounded=0;whiteSpace=wrap;html=1;align=left;" vertex="1" parent="WIyWlLk6GJQsqaUBKTNV-1">
          <mxGeometry x="109" y="160" width="270" height="110" as="geometry" />
        </mxCell>
        <mxCell id="siVvn_Tyn5SH2jTSL9R0-24" style="edgeStyle=orthogonalEdgeStyle;rounded=0;orthogonalLoop=1;jettySize=auto;html=1;exitX=1;exitY=0.5;exitDx=0;exitDy=0;entryX=1;entryY=0.5;entryDx=0;entryDy=0;" edge="1" parent="WIyWlLk6GJQsqaUBKTNV-1" source="siVvn_Tyn5SH2jTSL9R0-4" target="siVvn_Tyn5SH2jTSL9R0-22">
          <mxGeometry relative="1" as="geometry" />
        </mxCell>
        <mxCell id="siVvn_Tyn5SH2jTSL9R0-4" value="Мощности РЦ&lt;br&gt;- Сколько единиц можности доступно в капждую смену каждого дня" style="rounded=0;whiteSpace=wrap;html=1;align=left;" vertex="1" parent="WIyWlLk6GJQsqaUBKTNV-1">
          <mxGeometry x="560" y="140" width="320" height="60" as="geometry" />
        </mxCell>
        <mxCell id="siVvn_Tyn5SH2jTSL9R0-28" style="edgeStyle=orthogonalEdgeStyle;rounded=0;orthogonalLoop=1;jettySize=auto;html=1;exitX=1;exitY=0.25;exitDx=0;exitDy=0;entryX=1;entryY=0.5;entryDx=0;entryDy=0;" edge="1" parent="WIyWlLk6GJQsqaUBKTNV-1" source="siVvn_Tyn5SH2jTSL9R0-5" target="siVvn_Tyn5SH2jTSL9R0-26">
          <mxGeometry relative="1" as="geometry">
            <Array as="points">
              <mxPoint x="970" y="52" />
              <mxPoint x="970" y="720" />
            </Array>
          </mxGeometry>
        </mxCell>
        <mxCell id="siVvn_Tyn5SH2jTSL9R0-5" value="Рабочие центры&lt;br&gt;- какие этапы на них можно делать" style="rounded=0;whiteSpace=wrap;html=1;align=left;" vertex="1" parent="WIyWlLk6GJQsqaUBKTNV-1">
          <mxGeometry x="560" y="30" width="230" height="90" as="geometry" />
        </mxCell>
        <mxCell id="siVvn_Tyn5SH2jTSL9R0-6" value="Виды производства&lt;br&gt;- список этапов&lt;br&gt;- дерево, для случаев, когда можно параллельно" style="rounded=0;whiteSpace=wrap;html=1;align=left;" vertex="1" parent="WIyWlLk6GJQsqaUBKTNV-1">
          <mxGeometry x="560" y="230" width="330" height="80" as="geometry" />
        </mxCell>
        <mxCell id="siVvn_Tyn5SH2jTSL9R0-15" style="edgeStyle=orthogonalEdgeStyle;rounded=0;orthogonalLoop=1;jettySize=auto;html=1;exitX=0.25;exitY=1;exitDx=0;exitDy=0;" edge="1" parent="WIyWlLk6GJQsqaUBKTNV-1" source="siVvn_Tyn5SH2jTSL9R0-8">
          <mxGeometry relative="1" as="geometry">
            <mxPoint x="430" y="490" as="targetPoint" />
          </mxGeometry>
        </mxCell>
        <mxCell id="siVvn_Tyn5SH2jTSL9R0-8" value="Даты из 1С в разрезе ?? до продукции или..." style="rounded=0;whiteSpace=wrap;html=1;align=left;" vertex="1" parent="WIyWlLk6GJQsqaUBKTNV-1">
          <mxGeometry x="560" y="340" width="330" height="60" as="geometry" />
        </mxCell>
        <mxCell id="siVvn_Tyn5SH2jTSL9R0-9" value="Ключи планирования (штрихкоды) каждого стекла" style="rounded=0;whiteSpace=wrap;html=1;align=left;" vertex="1" parent="WIyWlLk6GJQsqaUBKTNV-1">
          <mxGeometry x="-40" y="300" width="410" height="50" as="geometry" />
        </mxCell>
        <mxCell id="siVvn_Tyn5SH2jTSL9R0-17" style="edgeStyle=orthogonalEdgeStyle;rounded=0;orthogonalLoop=1;jettySize=auto;html=1;exitX=0.75;exitY=1;exitDx=0;exitDy=0;entryX=0.5;entryY=0;entryDx=0;entryDy=0;" edge="1" parent="WIyWlLk6GJQsqaUBKTNV-1" source="siVvn_Tyn5SH2jTSL9R0-11" target="siVvn_Tyn5SH2jTSL9R0-13">
          <mxGeometry relative="1" as="geometry" />
        </mxCell>
        <mxCell id="siVvn_Tyn5SH2jTSL9R0-27" style="edgeStyle=orthogonalEdgeStyle;rounded=0;orthogonalLoop=1;jettySize=auto;html=1;exitX=0.25;exitY=1;exitDx=0;exitDy=0;entryX=0.5;entryY=0;entryDx=0;entryDy=0;" edge="1" parent="WIyWlLk6GJQsqaUBKTNV-1" source="siVvn_Tyn5SH2jTSL9R0-11" target="siVvn_Tyn5SH2jTSL9R0-26">
          <mxGeometry relative="1" as="geometry" />
        </mxCell>
        <mxCell id="siVvn_Tyn5SH2jTSL9R0-11" value="Ключи к запуску (остатки регистра)" style="rounded=0;whiteSpace=wrap;html=1;align=left;" vertex="1" parent="WIyWlLk6GJQsqaUBKTNV-1">
          <mxGeometry x="-40" y="380" width="400" height="60" as="geometry" />
        </mxCell>
        <mxCell id="siVvn_Tyn5SH2jTSL9R0-23" style="edgeStyle=orthogonalEdgeStyle;rounded=0;orthogonalLoop=1;jettySize=auto;html=1;exitX=0.5;exitY=1;exitDx=0;exitDy=0;entryX=0.5;entryY=0;entryDx=0;entryDy=0;" edge="1" parent="WIyWlLk6GJQsqaUBKTNV-1" source="siVvn_Tyn5SH2jTSL9R0-13" target="siVvn_Tyn5SH2jTSL9R0-22">
          <mxGeometry relative="1" as="geometry" />
        </mxCell>
        <mxCell id="siVvn_Tyn5SH2jTSL9R0-13" value="Список к запуску в СМЕНУ" style="rounded=0;whiteSpace=wrap;html=1;align=left;" vertex="1" parent="WIyWlLk6GJQsqaUBKTNV-1">
          <mxGeometry x="190" y="490" width="480" height="60" as="geometry" />
        </mxCell>
        <mxCell id="siVvn_Tyn5SH2jTSL9R0-51" style="edgeStyle=orthogonalEdgeStyle;rounded=0;orthogonalLoop=1;jettySize=auto;html=1;exitX=0;exitY=0.5;exitDx=0;exitDy=0;entryX=1;entryY=0.5;entryDx=0;entryDy=0;" edge="1" parent="WIyWlLk6GJQsqaUBKTNV-1" source="siVvn_Tyn5SH2jTSL9R0-22" target="siVvn_Tyn5SH2jTSL9R0-47">
          <mxGeometry relative="1" as="geometry" />
        </mxCell>
        <mxCell id="siVvn_Tyn5SH2jTSL9R0-22" value="Распределение&lt;br&gt;- Пачка заданий на производство для каждого РЦ&lt;br&gt;- Оптимизация раскроя, раскладки, и т.д&lt;br&gt;- Файлы для станка" style="rounded=0;whiteSpace=wrap;html=1;align=left;" vertex="1" parent="WIyWlLk6GJQsqaUBKTNV-1">
          <mxGeometry x="220" y="585" width="360" height="75" as="geometry" />
        </mxCell>
        <mxCell id="siVvn_Tyn5SH2jTSL9R0-26" value="Диспетчеризация (отметки готовности этапов)&lt;br&gt;&lt;div style=&quot;&quot;&gt;&lt;span style=&quot;background-color: initial;&quot;&gt;Хоть для заданич целиком, хоть для отдельный ключей задания&lt;/span&gt;&lt;/div&gt;" style="rounded=0;whiteSpace=wrap;html=1;align=left;" vertex="1" parent="WIyWlLk6GJQsqaUBKTNV-1">
          <mxGeometry x="-30" y="690" width="420" height="60" as="geometry" />
        </mxCell>
        <mxCell id="siVvn_Tyn5SH2jTSL9R0-33" value="УПП" style="swimlane;fontStyle=0;childLayout=stackLayout;horizontal=1;startSize=30;horizontalStack=0;resizeParent=1;resizeParentMax=0;resizeLast=0;collapsible=1;marginBottom=0;whiteSpace=wrap;html=1;" vertex="1" parent="WIyWlLk6GJQsqaUBKTNV-1">
          <mxGeometry x="-420" y="140" width="260" height="90" as="geometry" />
        </mxCell>
        <mxCell id="siVvn_Tyn5SH2jTSL9R0-34" value="Библиотека интеграции" style="text;strokeColor=none;fillColor=none;align=left;verticalAlign=middle;spacingLeft=4;spacingRight=4;overflow=hidden;points=[[0,0.5],[1,0.5]];portConstraint=eastwest;rotatable=0;whiteSpace=wrap;html=1;" vertex="1" parent="siVvn_Tyn5SH2jTSL9R0-33">
          <mxGeometry y="30" width="260" height="30" as="geometry" />
        </mxCell>
        <mxCell id="siVvn_Tyn5SH2jTSL9R0-35" value="Даты в разрезе продукций" style="text;strokeColor=none;fillColor=none;align=left;verticalAlign=middle;spacingLeft=4;spacingRight=4;overflow=hidden;points=[[0,0.5],[1,0.5]];portConstraint=eastwest;rotatable=0;whiteSpace=wrap;html=1;" vertex="1" parent="siVvn_Tyn5SH2jTSL9R0-33">
          <mxGeometry y="60" width="260" height="30" as="geometry" />
        </mxCell>
        <mxCell id="siVvn_Tyn5SH2jTSL9R0-37" value="1С ЗД" style="swimlane;fontStyle=0;childLayout=stackLayout;horizontal=1;startSize=30;horizontalStack=0;resizeParent=1;resizeParentMax=0;resizeLast=0;collapsible=1;marginBottom=0;whiteSpace=wrap;html=1;" vertex="1" parent="WIyWlLk6GJQsqaUBKTNV-1">
          <mxGeometry x="-420" y="280" width="230" height="90" as="geometry" />
        </mxCell>
        <mxCell id="siVvn_Tyn5SH2jTSL9R0-38" value="Библиотека интеграции" style="text;strokeColor=none;fillColor=none;align=left;verticalAlign=middle;spacingLeft=4;spacingRight=4;overflow=hidden;points=[[0,0.5],[1,0.5]];portConstraint=eastwest;rotatable=0;whiteSpace=wrap;html=1;" vertex="1" parent="siVvn_Tyn5SH2jTSL9R0-37">
          <mxGeometry y="30" width="230" height="30" as="geometry" />
        </mxCell>
        <mxCell id="siVvn_Tyn5SH2jTSL9R0-39" value="Технодлогические справочники" style="text;strokeColor=none;fillColor=none;align=left;verticalAlign=middle;spacingLeft=4;spacingRight=4;overflow=hidden;points=[[0,0.5],[1,0.5]];portConstraint=eastwest;rotatable=0;whiteSpace=wrap;html=1;" vertex="1" parent="siVvn_Tyn5SH2jTSL9R0-37">
          <mxGeometry y="60" width="230" height="30" as="geometry" />
        </mxCell>
        <mxCell id="siVvn_Tyn5SH2jTSL9R0-41" value="Шина" style="swimlane;fontStyle=0;childLayout=stackLayout;horizontal=1;startSize=30;horizontalStack=0;resizeParent=1;resizeParentMax=0;resizeLast=0;collapsible=1;marginBottom=0;whiteSpace=wrap;html=1;" vertex="1" parent="WIyWlLk6GJQsqaUBKTNV-1">
          <mxGeometry x="-420" y="400" width="270" height="120" as="geometry" />
        </mxCell>
        <mxCell id="siVvn_Tyn5SH2jTSL9R0-42" value="Справочники" style="text;strokeColor=none;fillColor=none;align=left;verticalAlign=middle;spacingLeft=4;spacingRight=4;overflow=hidden;points=[[0,0.5],[1,0.5]];portConstraint=eastwest;rotatable=0;whiteSpace=wrap;html=1;" vertex="1" parent="siVvn_Tyn5SH2jTSL9R0-41">
          <mxGeometry y="30" width="270" height="30" as="geometry" />
        </mxCell>
        <mxCell id="siVvn_Tyn5SH2jTSL9R0-43" value="Документы" style="text;strokeColor=none;fillColor=none;align=left;verticalAlign=middle;spacingLeft=4;spacingRight=4;overflow=hidden;points=[[0,0.5],[1,0.5]];portConstraint=eastwest;rotatable=0;whiteSpace=wrap;html=1;" vertex="1" parent="siVvn_Tyn5SH2jTSL9R0-41">
          <mxGeometry y="60" width="270" height="30" as="geometry" />
        </mxCell>
        <mxCell id="siVvn_Tyn5SH2jTSL9R0-44" value="Регистры (план и диспетчеризация)" style="text;strokeColor=none;fillColor=none;align=left;verticalAlign=middle;spacingLeft=4;spacingRight=4;overflow=hidden;points=[[0,0.5],[1,0.5]];portConstraint=eastwest;rotatable=0;whiteSpace=wrap;html=1;" vertex="1" parent="siVvn_Tyn5SH2jTSL9R0-41">
          <mxGeometry y="90" width="270" height="30" as="geometry" />
        </mxCell>
        <mxCell id="siVvn_Tyn5SH2jTSL9R0-45" value="Изогласс" style="swimlane;fontStyle=0;childLayout=stackLayout;horizontal=1;startSize=30;horizontalStack=0;resizeParent=1;resizeParentMax=0;resizeLast=0;collapsible=1;marginBottom=0;whiteSpace=wrap;html=1;" vertex="1" parent="WIyWlLk6GJQsqaUBKTNV-1">
          <mxGeometry x="-420" y="550" width="250" height="120" as="geometry" />
        </mxCell>
        <mxCell id="siVvn_Tyn5SH2jTSL9R0-46" value="Библиотека интеграции (реализовать)" style="text;strokeColor=none;fillColor=none;align=left;verticalAlign=middle;spacingLeft=4;spacingRight=4;overflow=hidden;points=[[0,0.5],[1,0.5]];portConstraint=eastwest;rotatable=0;whiteSpace=wrap;html=1;" vertex="1" parent="siVvn_Tyn5SH2jTSL9R0-45">
          <mxGeometry y="30" width="250" height="30" as="geometry" />
        </mxCell>
        <mxCell id="siVvn_Tyn5SH2jTSL9R0-47" value="Оптимизаторы, на вход которых надо подать наши остатки" style="text;strokeColor=none;fillColor=none;align=left;verticalAlign=middle;spacingLeft=4;spacingRight=4;overflow=hidden;points=[[0,0.5],[1,0.5]];portConstraint=eastwest;rotatable=0;whiteSpace=wrap;html=1;" vertex="1" parent="siVvn_Tyn5SH2jTSL9R0-45">
          <mxGeometry y="60" width="250" height="30" as="geometry" />
        </mxCell>
        <mxCell id="siVvn_Tyn5SH2jTSL9R0-48" value="Драйверы для станков" style="text;strokeColor=none;fillColor=none;align=left;verticalAlign=middle;spacingLeft=4;spacingRight=4;overflow=hidden;points=[[0,0.5],[1,0.5]];portConstraint=eastwest;rotatable=0;whiteSpace=wrap;html=1;" vertex="1" parent="siVvn_Tyn5SH2jTSL9R0-45">
          <mxGeometry y="90" width="250" height="30" as="geometry" />
        </mxCell>
        <mxCell id="siVvn_Tyn5SH2jTSL9R0-50" style="edgeStyle=orthogonalEdgeStyle;rounded=0;orthogonalLoop=1;jettySize=auto;html=1;exitX=1;exitY=0.5;exitDx=0;exitDy=0;entryX=1;entryY=0.5;entryDx=0;entryDy=0;" edge="1" parent="WIyWlLk6GJQsqaUBKTNV-1" source="siVvn_Tyn5SH2jTSL9R0-43" target="siVvn_Tyn5SH2jTSL9R0-46">
          <mxGeometry relative="1" as="geometry" />
        </mxCell>
        <mxCell id="siVvn_Tyn5SH2jTSL9R0-52" style="edgeStyle=orthogonalEdgeStyle;rounded=0;orthogonalLoop=1;jettySize=auto;html=1;exitX=0;exitY=0.5;exitDx=0;exitDy=0;entryX=1.004;entryY=0.165;entryDx=0;entryDy=0;entryPerimeter=0;" edge="1" parent="WIyWlLk6GJQsqaUBKTNV-1" source="siVvn_Tyn5SH2jTSL9R0-13" target="siVvn_Tyn5SH2jTSL9R0-47">
          <mxGeometry relative="1" as="geometry">
            <Array as="points">
              <mxPoint x="10" y="520" />
              <mxPoint x="10" y="610" />
              <mxPoint x="-169" y="610" />
            </Array>
          </mxGeometry>
        </mxCell>
        <mxCell id="siVvn_Tyn5SH2jTSL9R0-53" value="Движок планирования" style="swimlane;fontStyle=0;childLayout=stackLayout;horizontal=1;startSize=30;horizontalStack=0;resizeParent=1;resizeParentMax=0;resizeLast=0;collapsible=1;marginBottom=0;whiteSpace=wrap;html=1;" vertex="1" parent="WIyWlLk6GJQsqaUBKTNV-1">
          <mxGeometry x="-630" y="400" width="140" height="120" as="geometry" />
        </mxCell>
        <mxCell id="siVvn_Tyn5SH2jTSL9R0-54" value="Item 1" style="text;strokeColor=none;fillColor=none;align=left;verticalAlign=middle;spacingLeft=4;spacingRight=4;overflow=hidden;points=[[0,0.5],[1,0.5]];portConstraint=eastwest;rotatable=0;whiteSpace=wrap;html=1;" vertex="1" parent="siVvn_Tyn5SH2jTSL9R0-53">
          <mxGeometry y="30" width="140" height="30" as="geometry" />
        </mxCell>
        <mxCell id="siVvn_Tyn5SH2jTSL9R0-55" value="Item 2" style="text;strokeColor=none;fillColor=none;align=left;verticalAlign=middle;spacingLeft=4;spacingRight=4;overflow=hidden;points=[[0,0.5],[1,0.5]];portConstraint=eastwest;rotatable=0;whiteSpace=wrap;html=1;" vertex="1" parent="siVvn_Tyn5SH2jTSL9R0-53">
          <mxGeometry y="60" width="140" height="30" as="geometry" />
        </mxCell>
        <mxCell id="siVvn_Tyn5SH2jTSL9R0-56" value="Item 3" style="text;strokeColor=none;fillColor=none;align=left;verticalAlign=middle;spacingLeft=4;spacingRight=4;overflow=hidden;points=[[0,0.5],[1,0.5]];portConstraint=eastwest;rotatable=0;whiteSpace=wrap;html=1;" vertex="1" parent="siVvn_Tyn5SH2jTSL9R0-53">
          <mxGeometry y="90" width="140" height="30" as="geometry" />
        </mxCell>
        <mxCell id="siVvn_Tyn5SH2jTSL9R0-57" value="" style="endArrow=classic;startArrow=classic;html=1;rounded=0;exitX=1;exitY=0.5;exitDx=0;exitDy=0;" edge="1" parent="WIyWlLk6GJQsqaUBKTNV-1" source="siVvn_Tyn5SH2jTSL9R0-54">
          <mxGeometry width="50" height="50" relative="1" as="geometry">
            <mxPoint x="-280" y="500" as="sourcePoint" />
            <mxPoint x="-420" y="450" as="targetPoint" />
          </mxGeometry>
        </mxCell>
      </root>
    </mxGraphModel>
  </diagram>
</mxfile>
